<svg xmlns="http://www.w3.org/2000/svg" width="25" height="25" viewBox="0 0 25 25" fill="none"><path d="M16.5313 12.5L11.125 7.09375L9.8125 8.4375L13.875 12.5L9.8125 16.5625L11.125 17.9062L16.5313 12.5ZM25 12.5C25 14.2083 24.6719 15.8229 24.0156 17.3437C23.3594 18.8646 22.4635 20.1927 21.3281 21.3281C20.1927 22.4635 18.8646 23.3594 17.3438 24.0156C15.8229 24.6719 14.2083 25 12.5 25C10.7708 25 9.14583 24.6719 7.625 24.0156C6.10417 23.3594 4.78125 22.4635 3.65625 21.3281C2.53125 20.1927 1.64062 18.8646 0.984375 17.3438C0.328125 15.8229 -4.71719e-07 14.2083 -5.46392e-07 12.5C-6.21977e-07 10.7708 0.328124 9.14583 0.984374 7.625C1.64062 6.10417 2.53125 4.78125 3.65625 3.65625C4.78125 2.53125 6.10417 1.64063 7.625 0.984377C9.14583 0.328127 10.7708 1.43654e-06 12.5 1.36096e-06C14.2083 1.28628e-06 15.8229 0.328126 17.3438 0.984376C18.8646 1.64063 20.1927 2.53125 21.3281 3.65625C22.4635 4.78125 23.3594 6.10417 24.0156 7.625C24.6719 9.14583 25 10.7708 25 12.5Z" fill="#FCB432"></path></svg>